<svg width="820" height="820" viewBox="0 0 820 820" fill="none" xmlns="http://www.w3.org/2000/svg">
<path d="M279.128 89.2312L519.991 89.218C531.328 89.2159 543.576 88.2686 554.727 90.4564C584.308 96.2608 608.225 122.587 612.92 151.993C615.653 169.1 614.062 191.023 614.052 208.435L614.066 645.034C614.105 651.584 614.648 658.304 613.789 664.817C608.875 702.089 578.783 729.676 540.899 730.407L303.052 730.425C290.981 730.426 278.291 731.268 266.401 729.058C233.345 722.916 207.882 693.192 206.467 659.602C205.967 647.719 206.445 635.619 206.456 623.713L206.446 182.559C206.45 172.717 206.039 162.529 207.374 152.762C212.192 117.55 243.939 90.5771 279.128 89.2312Z" fill="#013C58"/>
<path d="M224.277 645.736C227.904 649.78 228.909 655.227 231.456 659.886C245.66 685.878 268.525 686.83 293.617 686.838L535.376 686.834C558.338 686.823 575.362 683.185 588.365 660.95C590.722 656.918 592.655 649.731 596.367 646.978C596.229 666.139 594.589 681.114 580.35 695.463C561.985 713.967 542.902 712.812 519.095 712.759H297.203C249.065 712.775 223.976 696.529 224.277 645.736Z" fill="#F5A201"/>
<path d="M224.277 162.221C226.364 133.837 246.508 109.901 275.719 107.071C281.782 106.484 287.914 106.868 293.997 106.889L531.102 106.869C564.774 106.455 593.189 121.958 596.367 159.245C596.782 176.033 596.365 192.92 596.365 209.719L596.367 619.355C585.943 606.162 577.448 590.786 568.42 576.603L493.898 458.459C489.999 452.399 486.27 446.104 482.024 440.287C489.316 430.536 498.158 421.776 505.678 412.139C535.891 373.419 563.198 326.972 562.45 276.28C561.4 205.175 509.133 143.315 439.138 130.7C342.737 113.328 255.821 183.652 257.794 282.186C258.803 332.634 284.933 374.896 315.811 412.795C319.925 417.843 323.887 422.936 328.587 427.464C322.877 431.47 300.829 455.347 296.446 462.033C274.653 478.33 257.971 510.192 249.957 535.275C241.762 538.253 230.733 569.373 224.277 578.877L224.281 207.817C224.281 192.675 223.736 177.341 224.277 162.221Z" fill="#FBE7C3"/>
<path d="M224.277 162.221C226.364 133.837 246.508 109.901 275.719 107.071C281.782 106.484 287.914 106.868 293.997 106.889L531.102 106.869C564.774 106.455 593.189 121.958 596.367 159.245C592.128 157.296 589.632 150.199 586.948 146.494C560.355 109.801 529.498 117.982 489.893 117.987L320.415 117.985C306.464 117.984 283.57 116.62 270.898 119.944C232.177 130.101 228.031 168.202 226.394 168.928C228.153 161.702 229.302 156.468 232.795 149.537C234.044 147.059 241.084 140.312 235.414 138.507C225.383 135.314 225.233 162.444 225.13 168.807C224.183 168.004 224.45 163.616 224.277 162.221Z" fill="#FEFEFE"/>
<path d="M328.587 427.464C333.422 437.112 400.206 507.407 408.682 510.099C416.494 512.58 475.242 447.659 482.024 440.287C486.27 446.104 489.999 452.399 493.898 458.459L568.42 576.603C577.447 590.786 585.943 606.162 596.367 619.355V646.978C592.655 649.732 590.722 656.918 588.365 660.95C575.362 683.185 558.337 686.823 535.376 686.834L293.617 686.838C268.525 686.83 245.66 685.878 231.456 659.886C228.909 655.227 227.904 649.78 224.277 645.736V578.877C230.733 569.373 241.762 538.253 249.957 535.275C257.971 510.192 274.653 478.33 296.446 462.033C300.829 455.347 322.877 431.47 328.587 427.464Z" fill="#FFBA42"/>
<path d="M336.765 477.274C343.362 476.649 350.144 482.085 347.191 489.236C345.36 493.668 335.174 497.998 331.137 500.833C317.922 510.114 306.124 533.145 301.033 535.275C291.59 535.678 287.481 529.592 291.029 521.118C298.691 502.811 318.582 484.758 336.765 477.274Z" fill="#013C58"/>
<path d="M296.446 462.033C302.735 461.836 308.987 463.309 309.041 470.726C309.08 475.704 299.687 483.13 296.637 486.614C280.223 505.361 267.723 527.926 265.396 553.099C264.975 557.658 265.441 563.001 264.454 567.426C262.709 575.258 253.5 576.819 248.652 570.957C243.618 564.87 248.373 543.625 249.957 535.275C257.971 510.192 274.653 478.33 296.446 462.033Z" fill="#013C58"/>
<path d="M364.486 569.704L427.993 569.718C437.639 569.705 450.308 568.772 459.53 570.165C496.041 575.68 497.431 631.037 456.052 637.614C436 637.984 376.659 640.286 358.717 636.973C322.393 630.269 322.395 573.731 364.486 569.704Z" fill="#013C58"/>
<path d="M350.814 599.412C352.869 595.176 355.478 590.966 360.154 589.294C365.06 587.543 440.022 587.461 454.22 588.315C461.882 588.775 465.578 592.32 468.596 599.412C455.464 599.66 442.276 599.417 429.139 599.415L350.814 599.412Z" fill="#FBE7C3"/>
<path d="M350.814 599.412L429.139 599.415C442.276 599.416 455.464 599.66 468.596 599.412C472.844 620.283 452.52 619.376 439.74 619.376L382.805 619.371C369.573 619.363 345.955 621.129 350.814 599.412Z" fill="#FFBA42"/>
<path d="M328.587 427.464C323.887 422.936 319.925 417.843 315.811 412.795C284.933 374.896 258.803 332.634 257.793 282.186C255.821 183.652 342.737 113.328 439.138 130.701C509.133 143.315 561.4 205.175 562.45 276.28C563.198 326.972 535.891 373.42 505.678 412.139C498.158 421.776 489.316 430.536 482.024 440.287C475.242 447.659 416.494 512.58 408.683 510.1C400.206 507.407 333.422 437.112 328.587 427.464Z" fill="#013C58"/>
<path d="M276.102 282.461C275.551 246.403 287.295 211.992 312.572 185.716C395.459 99.5539 548.084 159.668 544.52 282.461C541.88 289.399 538.051 263.507 536.537 258.806C528.525 233.925 514.983 210.801 494.991 193.656C440.537 146.952 353.651 153.118 306.923 208.031C297.286 219.356 276.492 256.951 277.772 272.737C277.394 275.482 277.53 280.166 276.102 282.461Z" fill="#A8E8F9"/>
<path d="M277.772 272.737C280.104 277.113 280.288 282.429 281.508 287.175C292.169 328.679 321.104 366.217 362.058 380.957C436.144 407.622 515.659 359.065 541.608 287.742C542.628 284.938 542.91 283.511 544.52 286.978C542.005 346.997 484.138 414.213 442.106 456.98L423.852 475.466C419.523 479.8 415.116 484.46 410.219 488.156C379.037 457.007 352.662 431.297 325.044 395.472C301.275 364.64 273.612 323.526 276.102 282.461C277.53 280.166 277.394 275.482 277.772 272.737Z" fill="#1191BB"/>
<path d="M277.772 272.737C276.492 256.95 297.286 219.356 306.923 208.031C353.651 153.118 440.537 146.952 494.991 193.656C514.983 210.801 528.525 233.925 536.537 258.806C538.051 263.507 541.88 289.399 544.52 282.461C544.548 283.952 544.659 285.494 544.52 286.978C542.91 283.511 542.628 284.937 541.608 287.742C515.659 359.065 436.144 407.622 362.058 380.957C321.104 366.217 292.169 328.678 281.508 287.175C280.288 282.429 280.104 277.113 277.772 272.737Z" fill="#38C9EE"/>
<path d="M488.267 241.733C493.62 240.894 499.392 242.734 503.634 246.006C526.153 263.379 507.087 300.834 482.024 303.672C441.421 303.626 452.494 242.49 488.267 241.733Z" fill="#013C58"/>
<path d="M474.135 273.99C478.072 262.787 494.563 248.865 495.275 268.831C488.416 268.534 480.406 271.233 474.135 273.99Z" fill="#FFD35B"/>
<path d="M474.135 273.99C480.406 271.233 488.416 268.534 495.275 268.831C492.309 285.753 472.537 294.73 474.135 273.99Z" fill="#F5A201"/>
<path d="M444.226 194.084C477.872 191.319 479.438 252.274 440.628 257.661C401.652 258.276 407.55 197.246 444.226 194.084Z" fill="#013C58"/>
<path d="M431.656 227.06L431.831 226.449C434.602 216.856 445.668 202.352 451.449 218.763C444.587 219.564 436.743 222.208 431.656 227.06Z" fill="#FFD35B"/>
<path d="M451.449 218.763C454.739 240.18 429.387 248.344 431.656 227.06C436.743 222.208 444.587 219.564 451.449 218.763Z" fill="#F5A201"/>
<path d="M328.587 241.733C361.693 238.097 381.949 296.555 342.355 303.673C304.919 306.357 290.125 247.657 328.587 241.733Z" fill="#013C58"/>
<path d="M324.265 268.831C326.233 250.913 341.573 262.587 345.545 272.736C343.583 272.938 331.433 268.824 324.265 268.831Z" fill="#FFD35B"/>
<path d="M324.265 268.831C331.433 268.824 343.583 272.938 345.545 272.736C351.172 292.383 326.138 290.184 324.265 268.831Z" fill="#FFBA42"/>
<path d="M372.234 194.084C398.418 189.361 428.611 241.382 385.026 257.661C347.811 261.601 335.626 198.098 372.234 194.084Z" fill="#013C58"/>
<path d="M368.262 218.763C369.52 215.019 371.187 212.868 374.495 210.706C381.569 213.698 385.172 218.21 388.111 225.087C381.167 223.798 378.12 218.58 368.262 218.763Z" fill="#FFD35B"/>
<path d="M368.262 218.763C378.12 218.58 381.167 223.798 388.111 225.087C394.799 247.487 364.099 242.806 368.262 218.763Z" fill="#F5A201"/>
<path d="M410.219 261.651C425.126 260.896 438.856 269.942 444.965 283.474C452.848 300.929 445.532 290.784 460.214 305.475C485.218 330.498 459.728 375.687 427.691 364.233C419.814 361.419 417.963 358.3 408.606 358.185C399.879 359.815 393.754 366.438 384.396 366.615C351.029 367.241 336.296 326.473 363.504 302.818C369.613 297.509 371.407 296.1 373.671 288.486C378.599 271.916 392.896 261.621 410.219 261.651Z" fill="#013C58"/>
<path d="M389.598 296.619C395.696 272.876 423.15 272.459 431.656 298.031C414.407 294.415 408.575 293.01 389.598 296.619Z" fill="#FFD35B"/>
<path d="M452.988 329.36C454.238 337.979 446.595 347.655 437.896 348.49C427.865 349.455 418.544 334.512 397.735 343.009C392.755 345.043 388.375 349.019 382.731 349.018C372.663 349.016 366.188 338.559 366.663 329.36C367.483 331.554 370.549 332.935 372.673 333.906C384.356 339.248 390.214 331.618 400.87 329.703C426.751 325.052 432.836 342.998 452.988 329.36Z" fill="#F5A201"/>
<path d="M389.598 296.619C408.575 293.01 414.407 294.416 431.656 298.031C434.576 313.513 449.58 310.628 452.988 329.36C432.836 342.998 426.751 325.052 400.87 329.703C390.214 331.618 384.356 339.248 372.673 333.906C370.549 332.935 367.483 331.554 366.663 329.36C370.48 313.272 384.233 314.2 389.598 296.619Z" fill="#FFBA42"/>
</svg>
