<svg width="916" height="351" viewBox="0 0 916 351" fill="none" xmlns="http://www.w3.org/2000/svg">
<g clip-path="url(#clip0_0_1)">
<path d="M31.8081 38.1873L133.811 38.1817C138.612 38.1808 143.799 37.7754 148.521 38.7116C161.049 41.1956 171.177 52.4616 173.166 65.0453C174.323 72.366 173.649 81.7475 173.645 89.199L173.651 276.035C173.667 278.838 173.897 281.714 173.534 284.501C171.453 300.451 158.709 312.257 142.665 312.569L41.9397 312.577C36.8277 312.578 31.4538 312.938 26.4185 311.992C12.4195 309.364 1.63629 296.644 1.037 282.269C0.825244 277.184 1.02751 272.006 1.03226 266.911L1.02818 78.1256C1.02953 73.9139 0.855792 69.5541 1.42115 65.3745C3.46133 50.3059 16.9058 38.7633 31.8081 38.1873Z" fill="#013C58"/>
<path d="M8.5795 276.336C10.1154 278.066 10.541 280.397 11.6194 282.391C17.6348 293.514 27.3178 293.921 37.9443 293.925L140.327 293.923C150.05 293.918 157.26 292.362 162.767 282.846C163.765 281.121 164.584 278.046 166.155 276.867C166.097 285.067 165.403 291.475 159.372 297.616C151.595 305.534 143.514 305.04 133.432 305.017H39.4625C19.077 305.024 8.45191 298.072 8.5795 276.336Z" fill="#F5A201"/>
<path d="M8.57951 69.4225C9.46318 57.2759 17.9938 47.0328 30.3645 45.8217C32.9321 45.5704 35.5288 45.7349 38.1051 45.7438L138.517 45.7354C152.776 45.558 164.81 52.1925 166.155 68.1491C166.331 75.333 166.155 82.5596 166.155 89.7485L166.155 265.046C161.741 259.401 158.143 252.821 154.32 246.751L122.761 196.193C121.11 193.6 119.531 190.906 117.733 188.417C120.821 184.244 124.565 180.495 127.75 176.371C140.545 159.802 152.109 139.925 151.792 118.232C151.347 87.8041 129.213 61.3317 99.5706 55.9337C58.7459 48.4995 21.9377 78.5935 22.7732 120.76C23.2008 142.348 34.2664 160.433 47.343 176.652C49.0852 178.812 50.763 180.992 52.7536 182.929C50.3354 184.644 40.9985 194.861 39.1422 197.723C29.9132 204.697 22.8486 218.332 19.4544 229.066C15.9842 230.34 11.3133 243.657 8.57951 247.724L8.58087 88.9344C8.58087 82.4547 8.35011 75.8927 8.57951 69.4225Z" fill="#FBE7C3"/>
<path d="M8.57947 69.4225C9.46314 57.2759 17.9938 47.0328 30.3645 45.8217C32.932 45.5704 35.5287 45.7349 38.1051 45.7438L138.517 45.7354C152.776 45.558 164.809 52.1925 166.155 68.1491C164.36 67.3147 163.303 64.2777 162.167 62.6922C150.905 46.9902 137.837 50.4909 121.065 50.4932L49.2928 50.4924C43.3847 50.4918 33.6894 49.9082 28.3229 51.3307C11.9248 55.6771 10.169 71.9821 9.47603 72.2927C10.2206 69.2003 10.7072 66.9606 12.1868 63.9946C12.7155 62.9341 15.697 60.0469 13.2958 59.2745C9.04778 57.9082 8.98397 69.5179 8.94054 72.2406C8.53942 71.897 8.65277 70.0192 8.57947 69.4225Z" fill="#FEFEFE"/>
<path d="M52.7535 182.929C54.8012 187.058 83.0834 217.14 86.6731 218.292C89.9811 219.354 114.86 191.571 117.733 188.417C119.53 190.906 121.11 193.6 122.761 196.193L154.32 246.751C158.143 252.821 161.741 259.4 166.155 265.046V276.867C164.583 278.045 163.765 281.121 162.767 282.846C157.26 292.361 150.05 293.918 140.327 293.923L37.9442 293.924C27.3178 293.921 17.6347 293.514 11.6194 282.391C10.5409 280.397 10.1154 278.066 8.57947 276.336V247.724C11.3133 243.657 15.9841 230.34 19.4543 229.066C22.8485 218.332 29.9132 204.697 39.1422 197.723C40.9984 194.861 50.3353 184.644 52.7535 182.929Z" fill="#FFBA42"/>
<path d="M56.217 204.245C59.0105 203.977 61.8828 206.304 60.6319 209.364C59.8569 211.26 55.543 213.113 53.8334 214.326C48.2368 218.298 43.2408 228.154 41.0846 229.066C37.0857 229.238 35.3455 226.634 36.8481 223.007C40.093 215.173 48.5164 207.448 56.217 204.245Z" fill="#013C58"/>
<path d="M39.1422 197.722C41.8054 197.638 44.453 198.268 44.4761 201.442C44.4924 203.573 40.5145 206.751 39.2229 208.242C32.2717 216.264 26.9785 225.92 25.993 236.693C25.8145 238.644 26.012 240.93 25.5939 242.824C24.8548 246.176 20.955 246.844 18.9019 244.335C16.7701 241.73 18.7838 232.639 19.4544 229.066C22.8486 218.332 29.9132 204.697 39.1422 197.722Z" fill="#013C58"/>
<path d="M67.9565 243.798L94.8508 243.805C98.9359 243.799 104.301 243.4 108.206 243.996C123.669 246.356 124.257 270.045 106.734 272.86C98.2416 273.018 73.1113 274.003 65.5132 272.585C50.1304 269.717 50.1311 245.522 67.9565 243.798Z" fill="#013C58"/>
<path d="M62.1665 256.512C63.0366 254.699 64.1415 252.897 66.122 252.182C68.1995 251.432 99.9452 251.397 105.958 251.763C109.203 251.96 110.768 253.477 112.046 256.512C106.484 256.618 100.899 256.514 95.3361 256.513L62.1665 256.512Z" fill="#FBE7C3"/>
<path d="M62.1666 256.512L95.3361 256.513C100.899 256.514 106.485 256.618 112.046 256.512C113.845 265.443 105.238 265.055 99.8258 265.055L75.7142 265.053C70.1108 265.05 60.1087 265.806 62.1666 256.512Z" fill="#FFBA42"/>
<path d="M52.7536 182.929C50.763 180.992 49.0852 178.812 47.343 176.652C34.2664 160.433 23.2008 142.348 22.7732 120.759C21.9377 78.5933 58.7459 48.4994 99.5705 55.9336C129.213 61.3316 151.347 87.804 151.792 118.232C152.109 139.925 140.545 159.802 127.75 176.371C124.565 180.495 120.821 184.244 117.733 188.416C114.86 191.571 89.9811 219.354 86.6731 218.292C83.0835 217.14 54.8012 187.058 52.7536 182.929Z" fill="#013C58"/>
<path d="M30.5268 120.877C30.2933 105.447 35.2668 90.7209 45.9713 79.4767C81.0732 42.6049 145.708 68.3297 144.199 120.877C143.081 123.846 141.459 112.766 140.818 110.755C137.425 100.107 131.69 90.2113 123.224 82.8743C100.163 62.8882 63.3679 65.5268 43.5789 89.0262C39.4979 93.8723 30.6917 109.96 31.234 116.716C31.0738 117.891 31.1315 119.895 30.5268 120.877Z" fill="#A8E8F9"/>
<path d="M31.2339 116.716C32.2214 118.589 32.2995 120.864 32.816 122.894C37.3307 140.655 49.5847 156.72 66.9283 163.027C98.3027 174.438 131.977 153.659 142.965 123.137C143.398 121.937 143.517 121.327 144.199 122.81C143.134 148.494 118.628 177.259 100.827 195.56L93.0971 203.471C91.2639 205.326 89.3974 207.32 87.324 208.901C74.1185 195.572 62.949 184.57 51.253 169.239C41.1871 156.045 29.472 138.45 30.5267 120.877C31.1314 119.895 31.0737 117.891 31.2339 116.716Z" fill="#1191BB"/>
<path d="M31.2339 116.716C30.6916 109.961 39.4978 93.8723 43.5788 89.0263C63.3678 65.5269 100.163 62.8883 123.224 82.8744C131.69 90.2114 137.425 100.107 140.818 110.755C141.459 112.766 143.081 123.846 144.199 120.878C144.211 121.515 144.258 122.175 144.199 122.81C143.517 121.327 143.398 121.937 142.965 123.137C131.977 153.659 98.3027 174.438 66.9283 163.027C49.5847 156.72 37.3307 140.655 32.816 122.895C32.2995 120.864 32.2214 118.589 31.2339 116.716Z" fill="#38C9EE"/>
<path d="M120.376 103.448C122.643 103.089 125.088 103.876 126.884 105.277C136.421 112.711 128.346 128.74 117.733 129.954C100.538 129.934 105.227 103.772 120.376 103.448Z" fill="#013C58"/>
<path d="M114.391 117.252C116.059 112.458 123.043 106.5 123.344 115.044C120.439 114.918 117.047 116.072 114.391 117.252Z" fill="#FFD35B"/>
<path d="M114.391 117.252C117.047 116.073 120.439 114.918 123.344 115.044C122.088 122.286 113.715 126.127 114.391 117.252Z" fill="#F5A201"/>
<path d="M101.725 83.0575C115.974 81.8744 116.637 107.959 100.202 110.264C83.6956 110.528 86.1933 84.4106 101.725 83.0575Z" fill="#013C58"/>
<path d="M96.4025 97.169L96.4765 96.9077C97.6499 92.8024 102.336 86.5956 104.784 93.6185C101.878 93.9614 98.5567 95.093 96.4025 97.169Z" fill="#FFD35B"/>
<path d="M104.784 93.6185C106.178 102.784 95.4414 106.278 96.4024 97.1691C98.5566 95.0931 101.878 93.9614 104.784 93.6185Z" fill="#F5A201"/>
<path d="M52.7535 103.449C66.7735 101.892 75.3516 126.909 58.5843 129.954C42.7304 131.103 36.4653 105.983 52.7535 103.449Z" fill="#013C58"/>
<path d="M50.9231 115.044C51.7565 107.377 58.2531 112.372 59.9349 116.716C59.1042 116.802 53.9589 115.042 50.9231 115.044Z" fill="#FFD35B"/>
<path d="M50.9231 115.044C53.9589 115.042 59.1042 116.802 59.9349 116.716C62.3178 125.123 51.7165 124.182 50.9231 115.044Z" fill="#FFBA42"/>
<path d="M71.2374 83.0575C82.3261 81.0364 95.1129 103.298 76.6549 110.264C60.8947 111.951 55.7345 84.7755 71.2374 83.0575Z" fill="#013C58"/>
<path d="M69.5555 93.6184C70.0883 92.0163 70.7942 91.096 72.195 90.1708C75.1908 91.4512 76.7165 93.3818 77.9613 96.3247C75.0205 95.7733 73.7302 93.5403 69.5555 93.6184Z" fill="#FFD35B"/>
<path d="M69.5555 93.6186C73.7302 93.5404 75.0204 95.7735 77.9613 96.3249C80.7935 105.911 67.7923 103.907 69.5555 93.6186Z" fill="#F5A201"/>
<path d="M87.3239 111.972C93.6366 111.649 99.451 115.52 102.038 121.311C105.377 128.78 102.278 124.439 108.496 130.726C119.085 141.434 108.29 160.772 94.7232 155.871C91.3873 154.666 90.6034 153.332 86.6405 153.282C82.945 153.98 80.3509 156.814 76.388 156.89C62.2574 157.158 56.0181 139.712 67.5404 129.589C70.1276 127.317 70.8871 126.714 71.8461 123.456C73.9331 116.365 79.9878 111.959 87.3239 111.972Z" fill="#013C58"/>
<path d="M78.5912 126.936C81.1737 116.775 92.7998 116.597 96.4024 127.54C89.0975 125.993 86.6277 125.392 78.5912 126.936Z" fill="#FFD35B"/>
<path d="M105.436 140.947C105.965 144.635 102.728 148.776 99.0445 149.134C94.7965 149.546 90.8491 143.152 82.0368 146.788C79.9281 147.658 78.0732 149.36 75.6828 149.359C71.4192 149.359 68.6772 144.883 68.8781 140.947C69.2256 141.886 70.524 142.477 71.4233 142.893C76.371 145.178 78.8517 141.913 83.3644 141.094C94.3248 139.103 96.9018 146.783 105.436 140.947Z" fill="#F5A201"/>
<path d="M78.5912 126.936C86.6277 125.392 89.0975 125.993 96.4024 127.54C97.639 134.165 103.993 132.931 105.436 140.947C96.902 146.783 94.3249 139.103 83.3645 141.094C78.8518 141.913 76.3712 145.178 71.4234 142.893C70.5242 142.477 69.2258 141.886 68.8783 140.947C70.495 134.063 76.3189 134.46 78.5912 126.936Z" fill="#FFBA42"/>
</g>
<path d="M205.558 224.123C203.302 224.123 201.513 223.501 200.191 222.256C198.947 221.09 198.325 219.418 198.325 217.24C198.325 215.218 198.869 213.507 199.958 212.107C201.047 210.629 203.147 209.229 206.258 207.907C206.491 207.829 206.724 207.751 206.958 207.673C205.013 207.284 203.652 206.195 202.875 204.407C202.175 202.618 201.825 200.557 201.825 198.223C201.825 196.901 202.058 194.762 202.525 191.807C202.991 188.851 203.575 185.468 204.275 181.657C204.975 177.846 205.713 174.074 206.491 170.34C207.269 166.529 207.93 163.185 208.474 160.307C209.952 153.696 211.858 147.863 214.191 142.807C216.524 137.752 219.674 133.824 223.641 131.024C227.608 128.146 232.702 126.708 238.924 126.708C243.668 126.708 248.335 127.719 252.924 129.741C257.591 131.685 261.829 134.446 265.64 138.024C269.451 141.602 272.485 145.802 274.74 150.624C277.074 155.446 278.24 160.735 278.24 166.49C278.24 173.024 275.674 179.596 270.54 186.207C265.407 192.818 258.213 199.157 248.957 205.223C239.78 211.212 229.046 216.618 216.758 221.44C214.736 222.218 212.908 222.84 211.274 223.306C209.719 223.851 207.813 224.123 205.558 224.123ZM215.591 204.29C226.869 199.779 235.969 195.462 242.891 191.34C249.813 187.218 254.829 182.862 257.941 178.274C261.129 173.685 262.724 168.474 262.724 162.64C262.724 159.374 261.635 156.263 259.457 153.307C257.279 150.352 254.479 147.98 251.057 146.191C247.635 144.324 244.018 143.391 240.207 143.391C236.085 143.391 232.78 145.063 230.291 148.407C227.802 151.674 225.819 157.274 224.341 165.207C223.641 168.396 222.902 171.857 222.124 175.59C221.424 179.246 220.724 182.785 220.024 186.207C219.402 189.551 218.858 192.351 218.391 194.607C218.002 196.862 217.769 198.184 217.691 198.573C217.302 200.907 216.602 202.812 215.591 204.29ZM313.779 220.856C308.257 220.856 303.824 218.912 300.48 215.023C297.135 211.057 295.463 205.768 295.463 199.157C295.463 197.057 295.735 194.918 296.28 192.74C296.902 190.562 297.641 188.54 298.496 186.674C298.03 185.974 297.641 185.079 297.33 183.99C297.096 182.824 296.98 181.462 296.98 179.907C296.98 174.851 297.874 170.224 299.663 166.024C301.452 161.746 303.863 158.052 306.896 154.941C309.929 151.829 313.274 149.418 316.929 147.707C320.585 145.996 324.279 145.141 328.013 145.141C334.39 145.141 339.601 147.28 343.646 151.557C347.768 155.835 349.829 162.485 349.829 171.507C349.829 176.018 349.129 180.607 347.729 185.274C346.329 189.94 344.423 194.412 342.012 198.69C339.679 202.89 336.957 206.662 333.846 210.007C330.813 213.351 327.546 215.995 324.046 217.94C320.624 219.884 317.202 220.856 313.779 220.856ZM311.913 181.424C312.302 182.279 312.496 183.29 312.496 184.457C312.496 185.624 312.263 186.829 311.796 188.073C311.329 189.318 310.863 190.99 310.396 193.09C309.929 195.112 309.696 198.029 309.696 201.84C309.696 202.851 309.813 203.707 310.046 204.407C310.357 205.029 311.018 205.34 312.029 205.34C314.674 205.34 317.163 204.484 319.496 202.773C321.907 201.062 324.046 198.807 325.913 196.007C327.857 193.207 329.49 190.096 330.813 186.674C332.213 183.174 333.263 179.635 333.963 176.057C334.74 172.401 335.129 169.018 335.129 165.907C335.129 163.885 334.74 162.485 333.963 161.707C333.185 160.929 331.824 160.54 329.879 160.54C327.235 160.54 324.513 161.396 321.713 163.107C318.99 164.74 316.696 166.996 314.829 169.874C312.963 172.674 312.029 175.863 312.029 179.44C312.029 180.14 311.991 180.801 311.913 181.424ZM372.32 250.606C366.487 250.606 362.053 250.178 359.02 249.323C356.064 248.467 354.042 247.339 352.953 245.939C351.865 244.617 351.32 243.256 351.32 241.856C351.32 239.912 351.942 238.317 353.187 237.073C354.509 235.828 356.22 235.206 358.32 235.206C359.72 235.206 361.742 235.401 364.387 235.79C367.031 236.178 369.675 236.373 372.32 236.373C380.098 236.373 386.514 234.506 391.57 230.773C396.625 227.117 400.592 221.556 403.469 214.09C406.347 206.545 408.331 197.057 409.419 185.624C404.053 194.412 398.103 201.451 391.57 206.74C385.114 212.029 378.386 214.673 371.387 214.673C363.142 214.673 359.02 210.629 359.02 202.54C359.02 198.651 360.07 194.568 362.17 190.29C364.27 186.012 367.07 181.774 370.57 177.574C374.07 173.374 377.92 169.407 382.12 165.674C386.32 161.863 390.52 158.518 394.72 155.641C398.997 152.763 402.964 150.507 406.619 148.874C410.275 147.163 413.23 146.307 415.486 146.307C417.275 146.307 418.83 146.618 420.153 147.241C421.553 147.863 422.641 149.107 423.419 150.974C424.197 152.763 424.586 155.407 424.586 158.907C424.586 168.629 424.236 178.04 423.536 187.14C422.836 196.162 421.475 204.523 419.453 212.223C417.43 219.923 414.475 226.651 410.586 232.406C406.775 238.162 401.758 242.634 395.536 245.823C389.314 249.012 381.575 250.606 372.32 250.606ZM373.953 200.207C373.953 200.751 374.186 201.023 374.653 201.023C376.209 201.023 378.309 200.207 380.953 198.573C383.597 196.862 386.436 194.607 389.47 191.807C392.581 188.929 395.614 185.74 398.57 182.24C401.525 178.662 404.131 174.968 406.386 171.157C408.719 167.346 410.392 163.652 411.403 160.074C407.358 162.407 403.158 165.129 398.803 168.24C394.525 171.274 390.481 174.54 386.67 178.04C382.936 181.54 379.864 185.196 377.453 189.007C375.12 192.74 373.953 196.473 373.953 200.207ZM455.489 250.606C449.656 250.606 445.223 250.178 442.19 249.323C439.234 248.467 437.212 247.339 436.123 245.939C435.034 244.617 434.49 243.256 434.49 241.856C434.49 239.912 435.112 238.317 436.356 237.073C437.679 235.828 439.39 235.206 441.49 235.206C442.89 235.206 444.912 235.401 447.556 235.79C450.201 236.178 452.845 236.373 455.489 236.373C463.267 236.373 469.684 234.506 474.739 230.773C479.795 227.117 483.761 221.556 486.639 214.09C489.517 206.545 491.5 197.057 492.589 185.624C487.222 194.412 481.272 201.451 474.739 206.74C468.284 212.029 461.556 214.673 454.556 214.673C446.312 214.673 442.19 210.629 442.19 202.54C442.19 198.651 443.24 194.568 445.34 190.29C447.439 186.012 450.239 181.774 453.739 177.574C457.239 173.374 461.089 169.407 465.289 165.674C469.489 161.863 473.689 158.518 477.889 155.641C482.167 152.763 486.133 150.507 489.789 148.874C493.444 147.163 496.4 146.307 498.656 146.307C500.444 146.307 502 146.618 503.322 147.241C504.722 147.863 505.811 149.107 506.589 150.974C507.367 152.763 507.755 155.407 507.755 158.907C507.755 168.629 507.405 178.04 506.705 187.14C506.005 196.162 504.644 204.523 502.622 212.223C500.6 219.923 497.644 226.651 493.756 232.406C489.945 238.162 484.928 242.634 478.706 245.823C472.484 249.012 464.745 250.606 455.489 250.606ZM457.123 200.207C457.123 200.751 457.356 201.023 457.823 201.023C459.378 201.023 461.478 200.207 464.123 198.573C466.767 196.862 469.606 194.607 472.639 191.807C475.75 188.929 478.784 185.74 481.739 182.24C484.695 178.662 487.3 174.968 489.556 171.157C491.889 167.346 493.561 163.652 494.572 160.074C490.528 162.407 486.328 165.129 481.972 168.24C477.695 171.274 473.65 174.54 469.839 178.04C466.106 181.54 463.034 185.196 460.623 189.007C458.289 192.74 457.123 196.473 457.123 200.207ZM548.521 249.089C544.165 249.089 540.199 248.817 536.621 248.273C533.043 247.806 529.543 247.028 526.121 245.939C522.699 244.851 519.004 243.412 515.038 241.623C513.405 240.845 512.043 240.028 510.955 239.173C509.866 238.317 509.321 237.034 509.321 235.323C509.321 232.834 510.099 230.929 511.655 229.606C513.132 228.362 515.193 227.74 517.838 227.74C519.238 227.74 521.027 228.206 523.204 229.14C525.382 230.151 527.871 231.279 530.671 232.523C533.549 233.845 536.738 234.973 540.238 235.906C543.738 236.917 547.51 237.423 551.554 237.423C555.676 237.423 559.526 235.712 563.104 232.29C566.682 228.867 569.559 224.045 571.737 217.823C573.993 211.679 575.12 204.407 575.12 196.007C575.12 194.062 575.082 191.962 575.004 189.707C574.926 187.374 574.848 184.924 574.77 182.357C571.971 187.646 568.937 192.585 565.671 197.173C562.404 201.762 559.021 205.495 555.521 208.373C552.099 211.173 548.637 212.573 545.137 212.573C540.86 212.573 537.749 211.562 535.804 209.54C533.938 207.44 533.004 204.134 533.004 199.623C533.004 195.812 533.277 191.651 533.821 187.14C534.443 182.551 535.26 177.924 536.271 173.257C537.282 168.59 538.449 164.157 539.771 159.957C541.171 155.679 542.649 151.985 544.204 148.874C545.371 146.618 547.16 145.491 549.571 145.491C551.126 145.491 552.682 146.23 554.237 147.707C555.871 149.185 556.687 151.168 556.687 153.657C556.687 155.057 556.337 157.079 555.637 159.724C554.937 162.368 554.082 165.363 553.071 168.707C552.137 171.974 551.165 175.435 550.154 179.09C549.143 182.668 548.287 186.207 547.587 189.707C546.887 193.129 546.537 196.24 546.537 199.04C546.537 199.351 546.771 199.507 547.237 199.507C548.171 199.507 549.415 198.729 550.971 197.173C552.604 195.54 554.393 193.44 556.337 190.873C558.36 188.229 560.382 185.351 562.404 182.24C564.504 179.051 566.526 175.901 568.471 172.79C570.415 169.679 572.165 166.84 573.72 164.274C573.487 163.029 573.332 161.94 573.254 161.007C573.254 159.996 573.254 159.141 573.254 158.441C573.254 155.252 573.798 152.607 574.887 150.507C576.054 148.407 578.309 147.357 581.654 147.357C583.831 147.357 585.504 148.174 586.67 149.807C587.837 151.363 588.42 153.579 588.42 156.457C588.42 157.702 588.226 159.141 587.837 160.774C587.448 162.329 586.67 164.818 585.504 168.24L586.787 164.624C587.487 171.624 588.07 177.846 588.537 183.29C589.081 188.735 589.354 194.14 589.354 199.507C589.354 209.618 587.643 218.368 584.22 225.756C580.876 233.223 576.132 238.978 569.987 243.023C563.921 247.067 556.765 249.089 548.521 249.089ZM619.699 221.556C616.588 221.556 614.255 220.701 612.699 218.99C611.144 217.279 610.366 215.529 610.366 213.74C610.366 211.64 610.755 210.045 611.533 208.957C612.311 207.868 613.827 207.051 616.083 206.507C619.038 205.884 622.11 205.107 625.299 204.173C628.566 203.24 631.677 202.268 634.632 201.257C637.666 200.168 640.31 199.079 642.566 197.99C644.821 196.823 646.455 195.735 647.466 194.723C646.221 194.023 644.238 193.207 641.516 192.273C638.794 191.262 635.76 190.096 632.416 188.773C629.149 187.373 625.999 185.74 622.966 183.874C619.933 182.007 617.444 179.829 615.499 177.34C613.555 174.851 612.583 172.013 612.583 168.824C612.583 164.39 613.711 160.229 615.966 156.341C618.222 152.452 621.216 148.835 624.949 145.491C628.683 142.146 632.727 139.074 637.082 136.274C641.516 133.474 645.91 130.946 650.266 128.691C654.699 126.358 658.666 124.296 662.165 122.508C663.488 121.73 664.732 121.224 665.899 120.991C667.143 120.68 668.271 120.524 669.282 120.524C672.782 120.524 675.193 121.38 676.515 123.091C677.838 124.802 678.499 126.552 678.499 128.341C678.499 129.585 677.915 131.063 676.749 132.774C675.582 134.407 673.715 135.924 671.149 137.324C668.66 138.724 665.354 139.735 661.232 140.357C660.532 140.435 659.91 140.513 659.366 140.591C656.254 142.146 652.91 144.013 649.332 146.191C645.755 148.368 642.371 150.663 639.182 153.074C636.071 155.407 633.505 157.741 631.483 160.074C629.46 162.407 628.449 164.507 628.449 166.374C628.449 168.474 629.305 170.379 631.016 172.09C632.727 173.724 634.905 175.24 637.549 176.64C640.271 177.963 643.11 179.246 646.066 180.49C649.099 181.735 651.938 183.018 654.582 184.34C657.304 185.585 659.521 186.985 661.232 188.54C662.943 190.096 663.799 191.846 663.799 193.79C663.799 196.434 662.904 198.962 661.116 201.373C659.327 203.784 656.993 206.04 654.116 208.14C651.238 210.162 648.088 211.99 644.666 213.623C641.244 215.256 637.86 216.656 634.516 217.823C631.249 219.068 628.294 220.001 625.649 220.623C623.005 221.245 621.022 221.556 619.699 221.556ZM693.578 221.44C691.089 221.44 688.833 220.74 686.811 219.34C684.789 218.018 683.194 216.268 682.028 214.09C680.861 211.834 680.278 209.423 680.278 206.857C680.278 202.034 681.328 197.329 683.428 192.74C685.605 188.151 688.444 183.796 691.944 179.674C695.444 175.551 699.255 171.779 703.377 168.357C707.577 164.857 711.738 161.863 715.861 159.374C720.061 156.885 723.872 154.941 727.294 153.541C730.794 152.141 733.516 151.441 735.46 151.441C737.716 151.441 739.544 151.946 740.944 152.957C742.421 153.891 743.16 155.368 743.16 157.391C743.16 158.013 743.005 158.518 742.694 158.907C743.705 159.141 744.521 159.724 745.144 160.657C745.766 161.59 746.077 162.99 746.077 164.857C746.077 165.635 745.883 167.657 745.494 170.924C745.105 174.19 744.677 178.157 744.21 182.824C743.821 187.49 743.627 192.351 743.627 197.407C743.627 198.184 743.744 198.884 743.977 199.507C744.21 200.051 744.716 200.323 745.494 200.323C748.605 200.323 751.755 199.701 754.944 198.457C758.21 197.134 761.36 195.54 764.393 193.673C767.504 191.729 770.304 189.823 772.793 187.957C775.36 186.012 777.499 184.418 779.21 183.174C780.999 181.851 782.165 181.19 782.71 181.19C785.354 181.19 786.676 182.512 786.676 185.157C786.676 185.857 785.821 187.335 784.11 189.59C782.477 191.768 780.221 194.296 777.343 197.173C774.465 199.973 771.238 202.773 767.66 205.573C764.16 208.295 760.505 210.551 756.693 212.34C752.96 214.129 749.344 215.023 745.844 215.023C741.566 215.023 738.299 214.012 736.044 211.99C733.866 209.968 732.31 207.245 731.377 203.823C730.522 200.323 730.055 196.396 729.977 192.04C726.011 197.718 721.888 202.773 717.611 207.207C713.411 211.562 709.25 215.023 705.127 217.59C701.005 220.156 697.155 221.44 693.578 221.44ZM734.877 162.99C727.255 166.646 720.411 170.846 714.344 175.59C708.277 180.257 703.455 185.157 699.878 190.29C696.378 195.423 694.628 200.362 694.628 205.107C694.628 206.429 695.25 207.09 696.494 207.09C697.972 207.09 699.916 206.234 702.327 204.523C704.816 202.812 707.5 200.557 710.377 197.757C713.255 194.879 716.133 191.69 719.011 188.19C721.888 184.612 724.572 180.957 727.061 177.224C729.549 173.49 731.533 169.913 733.01 166.49C733.555 165.246 734.177 164.079 734.877 162.99ZM789.236 230.073C787.291 230.073 785.619 229.49 784.219 228.323C782.819 227.234 782.197 224.979 782.353 221.556C782.508 217.745 782.78 213.779 783.169 209.657C783.558 205.534 783.986 201.684 784.453 198.107C785.464 190.251 785.697 184.185 785.153 179.907C784.686 175.551 783.48 172.44 781.536 170.574C779.669 168.707 777.141 167.463 773.953 166.84C772.397 166.529 771.153 165.946 770.219 165.09C769.286 164.157 768.819 162.952 768.819 161.474C768.819 159.529 769.597 158.246 771.153 157.624C772.63 157.002 774.536 156.691 776.869 156.691C778.658 156.691 780.953 156.807 783.753 157.041C786.63 157.196 789.702 157.313 792.969 157.391C795.691 148.446 798.763 141.057 802.186 135.224C805.608 129.391 809.341 124.802 813.386 121.458C817.43 118.035 821.708 115.663 826.219 114.341C830.73 112.941 835.396 112.241 840.219 112.241C846.207 112.241 849.202 114.38 849.202 118.658C849.202 120.758 848.191 122.352 846.168 123.441C844.146 124.53 841.074 125.424 836.952 126.124C832.052 126.98 827.735 128.574 824.002 130.908C820.347 133.241 817.119 136.546 814.319 140.824C811.597 145.102 809.186 150.624 807.086 157.391C817.897 157.157 826.763 156.574 833.685 155.641C840.607 154.707 845.935 153.813 849.668 152.957C853.479 152.024 856.124 151.557 857.602 151.557C859.702 151.557 860.985 152.063 861.452 153.074C861.996 154.085 862.268 155.174 862.268 156.341C862.268 157.663 861.024 159.024 858.535 160.424C856.902 161.357 854.296 162.407 850.718 163.574C847.141 164.663 842.941 165.752 838.119 166.84C833.296 167.852 828.202 168.707 822.835 169.407C817.547 170.029 812.374 170.34 807.319 170.34C806.074 170.34 804.947 170.34 803.936 170.34C803.08 174.851 802.225 179.635 801.369 184.69C800.591 189.668 799.891 194.529 799.269 199.273C798.647 204.018 798.102 208.334 797.636 212.223C797.247 216.112 797.013 219.223 796.936 221.556C796.858 224.434 796.119 226.573 794.719 227.973C793.319 229.373 791.491 230.073 789.236 230.073ZM852.488 220.973C847.666 220.973 843.777 219.301 840.822 215.956C837.866 212.534 836.389 207.051 836.389 199.507C836.389 194.685 836.933 189.862 838.022 185.04C839.189 180.14 840.783 175.513 842.805 171.157C844.905 166.724 847.316 162.796 850.038 159.374C852.838 155.952 855.911 153.268 859.255 151.324C862.599 149.302 866.06 148.291 869.638 148.291C875.705 148.291 880.449 149.924 883.871 153.191C887.294 156.457 889.005 160.618 889.005 165.674C889.005 169.563 887.916 173.101 885.738 176.29C883.638 179.401 880.76 182.201 877.105 184.69C873.449 187.179 869.366 189.435 864.855 191.457C860.344 193.479 855.716 195.307 850.972 196.94C850.583 199.74 850.388 202.229 850.388 204.407C850.388 205.729 851.127 206.39 852.605 206.39C856.105 206.39 859.838 205.845 863.805 204.757C867.849 203.59 871.933 202.112 876.055 200.323C880.177 198.457 884.144 196.551 887.955 194.607C891.766 192.585 895.227 190.679 898.338 188.89C901.527 187.024 904.132 185.546 906.154 184.457C908.254 183.29 909.616 182.707 910.238 182.707C911.949 182.707 913.193 183.212 913.971 184.224C914.749 185.235 915.138 186.324 915.138 187.49C915.138 188.035 914.088 189.24 911.988 191.107C909.966 192.973 907.166 195.19 903.588 197.757C900.088 200.246 896.121 202.851 891.688 205.573C887.332 208.218 882.783 210.745 878.038 213.157C873.372 215.49 868.822 217.356 864.388 218.756C860.033 220.234 856.066 220.973 852.488 220.973ZM852.955 186.557C856.144 184.69 859.294 182.746 862.405 180.724C865.594 178.624 868.238 176.29 870.338 173.724C872.438 171.079 873.488 168.007 873.488 164.507C873.488 163.496 873.216 162.835 872.672 162.524C872.127 162.135 871.349 161.94 870.338 161.94C867.616 161.94 865.127 163.146 862.872 165.557C860.694 167.968 858.749 171.079 857.038 174.89C855.405 178.624 854.044 182.512 852.955 186.557Z" fill="#1191BB"/>
<defs>
<clipPath id="clip0_0_1">
<rect width="174.086" height="350.907" fill="white" transform="translate(0.187866 0.00219727)"/>
</clipPath>
</defs>
</svg>
